<svg width="40" height="40" viewBox="0 0 40 40" fill="none" xmlns="http://www.w3.org/2000/svg">
<path d="M30 36C30 34.8954 30.8954 34 32 34C33.1046 34 34 34.8954 34 36C34 37.1046 33.1046 38 32 38C30.8954 38 30 37.1046 30 36Z" stroke="#555555" stroke-width="2" stroke-linecap="round" stroke-linejoin="round"/>
<path d="M10 36C10 34.8954 10.8954 34 12 34C13.1046 34 14 34.8954 14 36C14 37.1046 13.1046 38 12 38C10.8954 38 10 37.1046 10 36Z" stroke="#555555" stroke-width="2" stroke-linecap="round" stroke-linejoin="round"/>
<path d="M2 2H3.53543C4.49996 2 5.32709 2.6884 5.5022 3.6369L10 28" stroke="#555555" stroke-width="2" stroke-linecap="round" stroke-linejoin="round"/>
<path d="M7 8H35.4859C36.7721 8 37.7239 9.19649 37.4347 10.4497L33.7424 26.4497C33.533 27.3572 32.7249 28 31.7936 28H10" stroke="#555555" stroke-width="2" stroke-linecap="round" stroke-linejoin="round"/>
</svg>
