<svg width="12" height="12" viewBox="0 0 12 12" fill="none" xmlns="http://www.w3.org/2000/svg">
<path fill-rule="evenodd" clip-rule="evenodd" d="M4.5 9.59701L8.61075 6.00001L4.5 2.40301V9.59701ZM4.99425 10.1618L9.10425 6.56476C9.18481 6.49436 9.24937 6.40755 9.29361 6.31014C9.33785 6.21273 9.36073 6.10699 9.36073 6.00001C9.36073 5.89303 9.33785 5.78728 9.29361 5.68988C9.24937 5.59247 9.18481 5.50565 9.10425 5.43526L4.995 1.83826C4.50825 1.41376 3.75 1.75876 3.75 2.40301V9.59701C3.74988 9.74119 3.79132 9.88235 3.86936 10.0036C3.9474 10.1248 4.05873 10.221 4.19002 10.2806C4.32131 10.3402 4.467 10.3607 4.60963 10.3396C4.75227 10.3185 4.8858 10.2568 4.99425 10.1618Z" fill="#0170DD"/>
</svg>
