<svg width="18" height="18" viewBox="0 0 18 18" fill="none" xmlns="http://www.w3.org/2000/svg">
<path fill-rule="evenodd" clip-rule="evenodd" d="M6.75 14.3954L12.9161 8.99995L6.75 3.60445V14.3954ZM7.49137 15.2426L13.6564 9.84708C13.7772 9.74148 13.8741 9.61126 13.9404 9.46515C14.0068 9.31904 14.0411 9.16042 14.0411 8.99995C14.0411 8.83948 14.0068 8.68086 13.9404 8.53475C13.8741 8.38864 13.7772 8.25842 13.6564 8.15283L7.4925 2.75733C6.76237 2.12058 5.625 2.63808 5.625 3.60445V14.3954C5.62481 14.6117 5.68697 14.8235 5.80403 15.0053C5.92109 15.1872 6.08809 15.3314 6.28503 15.4208C6.48197 15.5102 6.7005 15.5409 6.91445 15.5093C7.1284 15.4777 7.32871 15.3851 7.49137 15.2426Z" fill="white"/>
</svg>
