<svg width="48" height="48" fill="none" xmlns="http://www.w3.org/2000/svg"><g clip-path="url(#clip0_60_3641)" fill="#000"><path fill-rule="evenodd" clip-rule="evenodd" d="M37.061 10.938a1.498 1.498 0 010 2.124l-21 21a1.5 1.5 0 01-2.124 0l-10.5-10.5a1.502 1.502 0 012.124-2.124l9.438 9.44 19.938-19.94a1.499 1.499 0 012.124 0z"/><path d="M18.749 24.129l-2.688-2.691a1.502 1.502 0 00-2.124 2.124l2.691 2.688 2.121-2.121zm3 7.242l2.688 2.69a1.498 1.498 0 002.124 0l21-21a1.502 1.502 0 00-2.124-2.123l-19.938 19.94-1.629-1.628-2.121 2.12z"/></g><defs><clipPath id="clip0_60_3641"><path fill="#fff" d="M0 0h48v48H0z"/></clipPath></defs></svg>