<svg width="24" height="24" fill="none" xmlns="http://www.w3.org/2000/svg"><path d="M6 15a1.5 1.5 0 013 0v3a1.5 1.5 0 01-3 0v-3zm4.5 0a1.5 1.5 0 113 0v3a1.5 1.5 0 11-3 0v-3zm4.5 0a1.5 1.5 0 113 0v3a1.5 1.5 0 11-3 0v-3z" fill="#232323"/><path fill-rule="evenodd" clip-rule="evenodd" d="M8.636 1.607a.75.75 0 01.258 1.029L5.073 9h13.851l-3.82-6.364a.75.75 0 011.287-.771L20.674 9h2.576a.75.75 0 01.75.75v1.5a.75.75 0 01-.75.75h-.934l-2.767 9.684a1.125 1.125 0 01-1.082.816H5.534a1.125 1.125 0 01-1.083-.816L1.684 12H.75a.75.75 0 01-.75-.75v-1.5A.75.75 0 01.75 9h2.575l4.28-7.135a.75.75 0 011.029-.258h.002zM3.245 12l2.57 9h12.37l2.57-9H3.245z" fill="#232323"/></svg>