<svg width="18" height="21" fill="none" xmlns="http://www.w3.org/2000/svg"><path fill-rule="evenodd" clip-rule="evenodd" d="M7.154 19.041c.094 1.25 1.374 2.217 2.754 1.897l.377-.086c.345-.075.663-.234.92-.46.257-.227.443-.514.54-.83.318-1.09.77-3.355.09-6.024.196.026.411.05.64.068 1.029.087 2.409.095 3.631-.282.748-.231 1.435-.908 1.732-1.7a2.34 2.34 0 00.137-1.196 2.427 2.427 0 00-.475-1.12c.084-.157.15-.323.2-.483.11-.36.163-.759.163-1.145 0-.385-.052-.782-.163-1.144a2.676 2.676 0 00-.231-.538c.244-.517.154-1.095-.005-1.535-.162-.433-.4-.84-.704-1.202.078-.205.11-.418.11-.621a2.345 2.345 0 00-.366-1.219C16.023.637 15.066 0 13.713 0v1.336c.813 0 1.3.363 1.539.748.124.2.174.4.174.556 0 .16-.05.22-.058.227l-.51.471.51.473c.29.27.587.684.728 1.076.15.416.062.587-.007.652l-.51.471.51.473c.062.057.151.188.222.42.07.224.108.495.108.777 0 .283-.039.554-.108.777-.072.233-.16.364-.222.421l-.51.472.51.473c.51.47.538.954.385 1.364-.176.467-.571.792-.824.87-.943.29-2.089.298-3.046.218a13.82 13.82 0 01-1.579-.227l-.02-.005h-.006a.778.778 0 00-.38.008.732.732 0 00-.323.187.652.652 0 00-.176.312.622.622 0 00.02.352c.726 2.041.8 4.233.21 6.312-.044.15-.185.287-.416.34l-.378.089c-.442.101-.927-.209-.963-.694-.108-1.444-.345-2.872-.696-3.807-.251-.67-.87-1.692-1.787-2.64-.918-.952-2.191-1.882-3.772-2.283-.568-.143-.895-.529-.895-.868V4.006c0-.347.318-.688.799-.734 1.866-.185 2.794-.708 3.595-1.161l.058-.032c.39-.22.715-.396 1.12-.525.4-.129.91-.218 1.646-.218h5.052V0H8.66c-.874 0-1.545.107-2.116.29a7.199 7.199 0 00-1.4.648l-.07.039c-.727.411-1.442.814-2.985.965C.984 2.051 0 2.877 0 4.006V9.35c0 1.137.989 1.914 1.959 2.159 1.225.31 2.272 1.05 3.077 1.883.809.836 1.32 1.71 1.5 2.188.287.768.514 2.057.618 3.461z" fill="#000"/></svg>