<svg width="24" height="24" fill="none" xmlns="http://www.w3.org/2000/svg"><g clip-path="url(#clip0_5_255)"><path fill-rule="evenodd" clip-rule="evenodd" d="M12.003 4.121l-1.076-1.106C8.403.42 3.774 1.316 2.103 4.578c-.785 1.535-.962 3.75.47 6.578 1.38 2.723 4.252 5.984 9.43 9.536 5.178-3.552 8.047-6.813 9.429-9.536 1.432-2.829 1.257-5.043.47-6.578-1.67-3.262-6.3-4.159-8.824-1.564l-1.075 1.107zm0 18.378c-23-15.198-7.082-27.06-.264-20.786.09.083.178.168.264.257.084-.088.172-.174.264-.255 6.816-6.279 22.735 5.584-.264 20.784z" fill="#000"/></g><defs><clipPath id="clip0_5_255"><path fill="#fff" d="M0 0h24v24H0z"/></clipPath></defs></svg>