<svg width="44" height="44" fill="none" xmlns="http://www.w3.org/2000/svg"><path d="M22 3.962c5.878 0 6.574.025 8.886.129 2.148.094 3.308.455 4.082.756 1.023.395 1.762.876 2.526 1.641.774.774 1.247 1.504 1.642 2.527.3.773.662 1.942.756 4.082.103 2.32.13 3.016.13 8.886 0 5.878-.027 6.574-.13 8.886-.094 2.148-.455 3.308-.756 4.082-.395 1.022-.877 1.761-1.642 2.526-.773.774-1.503 1.246-2.526 1.642-.774.3-1.942.662-4.082.756-2.32.103-3.017.129-8.886.129-5.878 0-6.574-.026-8.886-.129-2.148-.094-3.309-.456-4.082-.756-1.023-.396-1.762-.877-2.527-1.642-.773-.773-1.246-1.504-1.64-2.526-.302-.774-.663-1.942-.757-4.082-.103-2.32-.13-3.017-.13-8.886 0-5.878.027-6.574.13-8.886.094-2.149.455-3.309.756-4.082a6.81 6.81 0 011.641-2.527c.774-.773 1.504-1.246 2.527-1.641.773-.3 1.942-.662 4.082-.756 2.312-.104 3.008-.13 8.886-.13zM22 0c-5.973 0-6.72.026-9.066.129-2.338.103-3.945.481-5.337 1.023-1.452.567-2.681 1.314-3.902 2.543-1.229 1.22-1.976 2.45-2.543 3.893-.542 1.401-.92 3-1.023 5.337C.026 15.28 0 16.027 0 22c0 5.973.026 6.72.129 9.066.103 2.338.481 3.945 1.023 5.337.567 1.453 1.314 2.681 2.543 3.902a10.754 10.754 0 003.893 2.535c1.401.541 3 .92 5.337 1.022 2.346.104 3.094.13 9.066.13 5.973 0 6.72-.026 9.067-.13 2.337-.103 3.944-.48 5.337-1.022a10.754 10.754 0 003.892-2.535 10.754 10.754 0 002.536-3.893c.541-1.401.92-3 1.022-5.337.103-2.346.13-3.094.13-9.066 0-5.973-.027-6.72-.13-9.067-.103-2.337-.48-3.944-1.022-5.337-.542-1.46-1.29-2.69-2.518-3.91a10.753 10.753 0 00-3.893-2.535c-1.401-.541-3-.92-5.337-1.022C28.72.025 27.973 0 22 0z" fill="#fff"/><path d="M22 10.7c-6.24 0-11.3 5.06-11.3 11.3 0 6.24 5.06 11.3 11.3 11.3 6.24 0 11.3-5.06 11.3-11.3 0-6.24-5.06-11.3-11.3-11.3zm0 18.63a7.332 7.332 0 010-14.66 7.332 7.332 0 010 14.66zm14.386-19.078a2.639 2.639 0 11-2.638-2.638 2.644 2.644 0 012.638 2.638z" fill="#fff"/></svg>