<svg width="18" height="21" fill="none" xmlns="http://www.w3.org/2000/svg"><path fill-rule="evenodd" clip-rule="evenodd" d="M7.155 1.958C7.248.709 8.529-.257 9.909.061l.377.088c.668.155 1.261.61 1.46 1.29.318 1.09.77 3.354.09 6.024.213-.027.426-.05.64-.068 1.029-.087 2.409-.096 3.632.28.747.231 1.435.91 1.732 1.7a2.378 2.378 0 01-.338 2.316c.084.159.149.323.2.485.11.36.163.757.163 1.143s-.052.783-.163 1.143a2.66 2.66 0 01-.232.54c.245.517.155 1.094-.004 1.534-.162.434-.4.84-.704 1.203.078.203.11.417.11.621 0 .408-.13.835-.366 1.219-.482.782-1.44 1.421-2.792 1.421v-1.336c.813 0 1.3-.363 1.54-.748a1.1 1.1 0 00.174-.556c0-.16-.05-.22-.058-.227l-.511-.473.51-.472c.291-.269.587-.683.729-1.074.15-.417.062-.59-.008-.652l-.51-.473.51-.473c.063-.056.152-.187.223-.42.069-.224.108-.495.108-.777 0-.282-.039-.553-.108-.776-.072-.232-.16-.365-.223-.42l-.51-.474.51-.473c.51-.47.539-.952.386-1.362-.176-.468-.572-.792-.824-.871-.943-.29-2.09-.3-3.046-.22a13.82 13.82 0 00-1.58.23l-.02.003-.004.002a.778.778 0 01-.38-.009.733.733 0 01-.324-.186.653.653 0 01-.176-.313.62.62 0 01.02-.351c.727-2.042.8-4.234.21-6.313-.043-.149-.185-.288-.416-.341l-.378-.087c-.442-.103-.927.209-.963.692-.108 1.445-.345 2.872-.696 3.807-.25.67-.87 1.694-1.787 2.641-.92.951-2.193 1.884-3.773 2.282-.57.144-.895.529-.895.868v5.346c0 .347.317.688.798.735 1.867.183 2.795.708 3.596 1.16l.058.033c.39.218.714.395 1.12.524.4.127.91.218 1.646.218h5.052V21H8.662c-.874 0-1.545-.108-2.117-.291a7.2 7.2 0 01-1.4-.647l-.07-.04c-.727-.41-1.441-.813-2.985-.964C.985 18.948 0 18.123 0 16.993v-5.344c0-1.135.989-1.913 1.959-2.157 1.226-.31 2.272-1.051 3.078-1.884.808-.837 1.32-1.71 1.5-2.189.287-.768.514-2.056.618-3.46v-.001z" fill="#000"/></svg>