<svg width="150" height="27" fill="none" xmlns="http://www.w3.org/2000/svg"><path d="M10.052 26.216c-1.872 0-3.672-.3-5.4-.9-1.704-.6-3.024-1.392-3.96-2.376l1.044-2.052c.912.912 2.124 1.656 3.636 2.232 1.512.552 3.072.828 4.68.828 2.256 0 3.948-.408 5.076-1.224 1.128-.84 1.692-1.92 1.692-3.24 0-1.008-.312-1.812-.936-2.412-.6-.6-1.344-1.056-2.232-1.368-.888-.336-2.124-.696-3.708-1.08-1.896-.48-3.408-.936-4.536-1.368a7.774 7.774 0 01-2.916-2.052c-.792-.912-1.188-2.148-1.188-3.708 0-1.272.336-2.424 1.008-3.456.672-1.056 1.704-1.896 3.096-2.52C6.8.896 8.528.584 10.592.584c1.44 0 2.844.204 4.212.612 1.392.384 2.592.924 3.6 1.62l-.9 2.124a11.991 11.991 0 00-3.384-1.548 12.24 12.24 0 00-3.528-.54c-2.208 0-3.876.432-5.004 1.296-1.104.84-1.656 1.932-1.656 3.276 0 1.008.3 1.824.9 2.448.624.6 1.392 1.068 2.304 1.404.936.312 2.184.66 3.744 1.044 1.848.456 3.336.912 4.464 1.368a7.1 7.1 0 012.916 2.016c.792.888 1.188 2.1 1.188 3.636a6.213 6.213 0 01-1.044 3.492c-.672 1.032-1.716 1.86-3.132 2.484-1.416.6-3.156.9-5.22.9zm22.148 0c-1.872 0-3.672-.3-5.4-.9-1.704-.6-3.024-1.392-3.96-2.376l1.044-2.052c.912.912 2.124 1.656 3.636 2.232 1.512.552 3.072.828 4.68.828 2.256 0 3.948-.408 5.076-1.224 1.128-.84 1.692-1.92 1.692-3.24 0-1.008-.312-1.812-.936-2.412-.6-.6-1.344-1.056-2.232-1.368-.888-.336-2.124-.696-3.708-1.08-1.896-.48-3.408-.936-4.536-1.368a7.774 7.774 0 01-2.916-2.052c-.792-.912-1.188-2.148-1.188-3.708 0-1.272.336-2.424 1.008-3.456.672-1.056 1.704-1.896 3.096-2.52 1.392-.624 3.12-.936 5.184-.936 1.44 0 2.844.204 4.212.612 1.392.384 2.592.924 3.6 1.62l-.9 2.124a11.991 11.991 0 00-3.384-1.548 12.24 12.24 0 00-3.528-.54c-2.208 0-3.876.432-5.004 1.296-1.104.84-1.656 1.932-1.656 3.276 0 1.008.3 1.824.9 2.448.624.6 1.392 1.068 2.304 1.404.936.312 2.184.66 3.744 1.044 1.848.456 3.336.912 4.464 1.368a7.1 7.1 0 012.916 2.016c.792.888 1.188 2.1 1.188 3.636a6.213 6.213 0 01-1.044 3.492c-.672 1.032-1.716 1.86-3.132 2.484-1.416.6-3.156.9-5.22.9zM68.46.8V26h-2.627V14.372H50.065V26H47.4V.8h2.664v11.232h15.768V.8h2.628zm8.226 0h2.664V26h-2.664V.8zM104.757 26l-5.76-8.1c-.648.072-1.32.108-2.016.108h-6.768V26H87.55V.8h9.432c3.216 0 5.736.768 7.56 2.304 1.824 1.536 2.736 3.648 2.736 6.336 0 1.968-.504 3.636-1.512 5.004-.984 1.344-2.4 2.316-4.248 2.916l6.156 8.64h-2.916zm-7.848-10.26c2.496 0 4.404-.552 5.724-1.656 1.32-1.104 1.98-2.652 1.98-4.644 0-2.04-.66-3.6-1.98-4.68-1.32-1.104-3.228-1.656-5.724-1.656h-6.696V15.74h6.696zm21.2-12.636h-8.856V.8h20.376v2.304h-8.856V26h-2.664V3.104zm22.338 23.112c-1.872 0-3.672-.3-5.4-.9-1.704-.6-3.024-1.392-3.96-2.376l1.044-2.052c.912.912 2.124 1.656 3.636 2.232 1.512.552 3.072.828 4.68.828 2.256 0 3.948-.408 5.076-1.224 1.128-.84 1.692-1.92 1.692-3.24 0-1.008-.312-1.812-.936-2.412-.6-.6-1.344-1.056-2.232-1.368-.888-.336-2.124-.696-3.708-1.08-1.896-.48-3.408-.936-4.536-1.368a7.774 7.774 0 01-2.916-2.052c-.792-.912-1.188-2.148-1.188-3.708 0-1.272.336-2.424 1.008-3.456.672-1.056 1.704-1.896 3.096-2.52 1.392-.624 3.12-.936 5.184-.936 1.44 0 2.844.204 4.212.612 1.392.384 2.592.924 3.6 1.62l-.9 2.124a11.991 11.991 0 00-3.384-1.548 12.24 12.24 0 00-3.528-.54c-2.208 0-3.876.432-5.004 1.296-1.104.84-1.656 1.932-1.656 3.276 0 1.008.3 1.824.9 2.448.624.6 1.392 1.068 2.304 1.404.936.312 2.184.66 3.744 1.044 1.848.456 3.336.912 4.464 1.368a7.1 7.1 0 012.916 2.016c.792.888 1.188 2.1 1.188 3.636a6.213 6.213 0 01-1.044 3.492c-.672 1.032-1.716 1.86-3.132 2.484-1.416.6-3.156.9-5.22.9z" fill="#232323"/></svg>