<svg width="28" height="24" fill="none" xmlns="http://www.w3.org/2000/svg"><g clip-path="url(#clip0_60_2719)" fill-rule="evenodd" clip-rule="evenodd" fill="#E6E8EC"><path d="M17.942 15.663c.16-.14.348-.25.556-.325a1.924 1.924 0 011.312 0c.207.075.396.186.555.325l6.593 5.775c.321.282.502.663.502 1.061 0 .398-.18.78-.501 1.061-.322.282-.757.44-1.211.44-.454 0-.89-.158-1.212-.44l-6.592-5.774a1.504 1.504 0 01-.372-.487 1.34 1.34 0 010-1.149c.087-.182.213-.347.372-.487h-.002z"/><path d="M11.194 18c1.237 0 2.462-.213 3.604-.628a9.604 9.604 0 003.056-1.788 8.27 8.27 0 002.041-2.677c.474-1 .717-2.074.717-3.157a7.371 7.371 0 00-.717-3.157 8.271 8.271 0 00-2.041-2.677 9.604 9.604 0 00-3.055-1.788 10.586 10.586 0 00-3.604-.628c-2.498 0-4.894.87-6.66 2.416C2.77 5.464 1.777 7.562 1.777 9.75c0 2.188.992 4.287 2.758 5.834C6.301 17.13 8.697 18 11.195 18zm11.13-8.25c0 2.586-1.172 5.066-3.26 6.894-2.087 1.829-4.918 2.856-7.87 2.856-2.951 0-5.782-1.027-7.87-2.856C1.237 14.816.064 12.336.064 9.75c0-2.586 1.173-5.066 3.26-6.894C5.412 1.027 8.243 0 11.194 0c2.952 0 5.783 1.027 7.87 2.856 2.088 1.828 3.26 4.308 3.26 6.894z"/></g><defs><clipPath id="clip0_60_2719"><path fill="#fff" transform="translate(.064)" d="M0 0h27.397v24H0z"/></clipPath></defs></svg>