<svg width="24" height="22" fill="none" xmlns="http://www.w3.org/2000/svg"><path fill-rule="evenodd" clip-rule="evenodd" d="M4.297 21.047c-.117.65.54 1.16 1.119.87l6.585-3.31 6.583 3.31c.58.29 1.236-.22 1.12-.869l-1.245-6.937 5.284-4.921c.494-.46.237-1.303-.424-1.394l-7.347-1.02L12.695.43a.758.758 0 00-.284-.314.782.782 0 00-1.106.314L8.029 6.777.682 7.797c-.662.092-.918.934-.425 1.394l5.285 4.922-1.245 6.937v-.003zm7.358-4.058l-5.53 2.777 1.041-5.803a.81.81 0 00-.244-.74L2.563 9.16l6.078-.844a.797.797 0 00.59-.423L12 2.53l2.769 5.364a.797.797 0 00.59.422l6.077.844-4.359 4.062a.824.824 0 00-.244.742l1.041 5.803-5.529-2.777a.768.768 0 00-.691 0z" fill="#000"/></svg>