<svg width="18" height="20" fill="none" xmlns="http://www.w3.org/2000/svg"><path d="M3 4V3a1 1 0 00-1 1h1zm12 0h1a1 1 0 00-1-1v1zM3 5h12V3H3v2zm11-1v14h2V4h-2zm0 14H4v2h10v-2zM4 18V4H2v14h2zm0 0H2a2 2 0 002 2v-2zm10 0v2a2 2 0 002-2h-2z" fill="#696969"/><path d="M1 4h16" stroke="#696969" stroke-width="2" stroke-linecap="round" stroke-linejoin="round"/><path d="M13 4v1a1 1 0 001-1h-1zM5 4H4a1 1 0 001 1V4zm1-2h6V0H6v2zm6 0v2h2V2h-2zm1 1H5v2h8V3zM6 4V2H4v2h2zm6-2h2a2 2 0 00-2-2v2zM6 0a2 2 0 00-2 2h2V0z" fill="#696969"/></svg>