<svg width="44" height="31" fill="none" xmlns="http://www.w3.org/2000/svg"><path d="M15.4 17.6a4.4 4.4 0 100-8.8 4.4 4.4 0 000 8.8z" stroke="#14181F" stroke-width="2" stroke-linecap="round" stroke-linejoin="round"/><path d="M39.6 2.2H4.4a2.2 2.2 0 00-2.2 2.2v22a2.2 2.2 0 002.2 2.2h35.2a2.2 2.2 0 002.2-2.2v-22a2.2 2.2 0 00-2.2-2.2z" stroke="#14181F" stroke-width="2" stroke-linecap="round" stroke-linejoin="round"/><path d="M8.8 28.6c0-2.43 2.955-4.4 6.6-4.4 3.645 0 6.6 1.97 6.6 4.4m13.2-8.8h-8.8m8.8-6.6h-6.6" stroke="#14181F" stroke-width="2" stroke-linecap="round" stroke-linejoin="round"/></svg>