<svg width="24" height="22" viewBox="0 0 24 22" fill="none" xmlns="http://www.w3.org/2000/svg">
<g clip-path="url(#clip0_44_2007)">
<path d="M12.0002 20.4L11.5136 21.2736C11.8161 21.4421 12.1843 21.4421 12.4868 21.2736L12.0002 20.4ZM12.0002 4.99464L11.0799 5.38576C11.2367 5.75494 11.5991 5.99464 12.0002 5.99464C12.4013 5.99464 12.7636 5.75494 12.9205 5.38576L12.0002 4.99464ZM0.200195 7.1668C0.200195 11.2416 3.21051 14.809 5.9349 17.2368C7.32893 18.479 8.71833 19.4846 9.75703 20.1788C10.2774 20.5265 10.7121 20.7978 11.0187 20.9832C11.172 21.0759 11.2935 21.1472 11.3777 21.196C11.4198 21.2204 11.4526 21.2392 11.4755 21.2521C11.4869 21.2586 11.4959 21.2637 11.5023 21.2673C11.5055 21.2691 11.508 21.2705 11.5099 21.2716C11.5108 21.2721 11.5116 21.2725 11.5123 21.2729C11.5126 21.273 11.5129 21.2732 11.5131 21.2733C11.5134 21.2735 11.5136 21.2736 12.0002 20.4C12.4868 19.5264 12.4869 19.5265 12.4871 19.5265C12.4871 19.5265 12.4872 19.5266 12.4871 19.5266C12.4871 19.5265 12.4869 19.5264 12.4866 19.5262C12.4858 19.5258 12.4845 19.5251 12.4825 19.5239C12.4785 19.5217 12.4719 19.518 12.4629 19.5129C12.4449 19.5027 12.4171 19.4868 12.3801 19.4654C12.3061 19.4225 12.1955 19.3576 12.0536 19.2717C11.7695 19.1 11.3605 18.8449 10.8684 18.516C9.88206 17.8568 8.57146 16.9074 7.26549 15.7436C4.58988 13.3593 2.2002 10.3101 2.2002 7.1668H0.200195ZM12.9205 4.60353C11.5393 1.35336 8.397 -0.143852 5.55722 0.266388C4.13283 0.472158 2.77899 1.15968 1.78415 2.34529C0.786574 3.53415 0.200195 5.16285 0.200195 7.1668H2.2002C2.2002 5.56168 2.66382 4.40839 3.31624 3.63086C3.9714 2.85007 4.86756 2.38678 5.84317 2.24584C7.80339 1.96266 10.0611 2.98845 11.0799 5.38576L12.9205 4.60353ZM21.8002 7.1668C21.8002 10.3101 19.4105 13.3593 16.7349 15.7436C15.4289 16.9074 14.1183 17.8568 13.132 18.516C12.6399 18.8449 12.2309 19.1 11.9468 19.2717C11.8048 19.3576 11.6942 19.4225 11.6203 19.4654C11.5833 19.4868 11.5555 19.5027 11.5375 19.5129C11.5285 19.518 11.5219 19.5217 11.5179 19.5239C11.5159 19.5251 11.5146 19.5258 11.5138 19.5262C11.5135 19.5264 11.5133 19.5265 11.5132 19.5266C11.5132 19.5266 11.5133 19.5265 11.5133 19.5265C11.5134 19.5265 11.5136 19.5264 12.0002 20.4C12.4868 21.2736 12.487 21.2735 12.4873 21.2733C12.4875 21.2732 12.4878 21.273 12.4881 21.2729C12.4888 21.2725 12.4895 21.2721 12.4905 21.2716C12.4924 21.2705 12.4949 21.2691 12.4981 21.2673C12.5045 21.2637 12.5135 21.2586 12.5249 21.2521C12.5478 21.2392 12.5806 21.2204 12.6227 21.196C12.7069 21.1472 12.8284 21.0759 12.9817 20.9832C13.2883 20.7978 13.723 20.5265 14.2434 20.1788C15.2821 19.4846 16.6715 18.479 18.0655 17.2368C20.7899 14.809 23.8002 11.2416 23.8002 7.1668H21.8002ZM12.9205 5.38576C13.9393 2.98845 16.197 1.96266 18.1572 2.24584C19.1328 2.38678 20.029 2.85007 20.6841 3.63086C21.3366 4.40839 21.8002 5.56168 21.8002 7.1668H23.8002C23.8002 5.16285 23.2138 3.53415 22.2162 2.34529C21.2214 1.15968 19.8676 0.472158 18.4432 0.266388C15.6034 -0.143852 12.4611 1.35336 11.0799 4.60353L12.9205 5.38576Z" fill="#555555"/>
</g>
<defs>
<clipPath id="clip0_44_2007">
<rect width="24" height="21.6" fill="white"/>
</clipPath>
</defs>
</svg>
