<svg width="44" height="40" fill="none" xmlns="http://www.w3.org/2000/svg"><path d="M4.4 3.2h35.2v-2H4.4v2zm36.4 1.2v30.8h2V4.4h-2zm-1.2 32H4.4v2h35.2v-2zM3.2 35.2V4.4h-2v30.8h2zm1.2 1.2a1.2 1.2 0 01-1.2-1.2h-2a3.2 3.2 0 003.2 3.2v-2zm36.4-1.2a1.2 1.2 0 01-1.2 1.2v2a3.2 3.2 0 003.2-3.2h-2zm-1.2-32a1.2 1.2 0 011.2 1.2h2a3.2 3.2 0 00-3.2-3.2v2zm-35.2-2a3.2 3.2 0 00-3.2 3.2h2a1.2 1.2 0 011.2-1.2v-2zM29.6 11a1 1 0 10-2 0h2zm-13.2 0a1 1 0 10-2 0h2zm11.2 0a5.6 5.6 0 01-5.6 5.6v2a7.6 7.6 0 007.6-7.6h-2zM22 16.6a5.6 5.6 0 01-5.6-5.6h-2a7.6 7.6 0 007.6 7.6v-2z" fill="#555"/></svg>