<svg width="44" height="44" fill="none" xmlns="http://www.w3.org/2000/svg"><path d="M33 39.6a2.2 2.2 0 114.4 0 2.2 2.2 0 01-4.4 0zm-22 0a2.2 2.2 0 114.4 0 2.2 2.2 0 01-4.4 0z" stroke="#555" stroke-width="2" stroke-linecap="round" stroke-linejoin="round"/><path d="M2.2 1.2a1 1 0 100 2v-2zM6.053 4l.983-.18-.983.18zm3.964 26.982a1 1 0 101.967-.363l-1.967.363zM2.2 3.2h1.69v-2H2.2v2zm2.87.982l4.947 26.8 1.967-.363-4.948-26.8-1.967.363zM3.89 3.2a1.2 1.2 0 011.18.982l1.966-.363A3.2 3.2 0 003.889 1.2v2z" fill="#555"/><path d="M7.7 7.8a1 1 0 100 2v-2zm33.478 3.695l.975.225-.975-.225zm-4.061 17.6l.974.225-.974-.225zM11 29.8a1 1 0 100 2v-2zm-3.3-20h31.335v-2H7.7v2zm32.504 1.47l-4.062 17.6 1.95.45 4.06-17.6-1.948-.45zm-5.23 18.53H11v2h23.973v-2zm1.168-.93a1.2 1.2 0 01-1.169.93v2a3.2 3.2 0 003.118-2.48l-1.949-.45zM39.035 9.8a1.2 1.2 0 011.169 1.47l1.949.45a3.2 3.2 0 00-3.118-3.92v2z" fill="#555"/></svg>