<svg width="44" height="40" fill="none" xmlns="http://www.w3.org/2000/svg"><path d="M2.2 6.6h39.6M4.4 37.4h35.2a2.2 2.2 0 002.2-2.2V4.4a2.2 2.2 0 00-2.2-2.2H4.4a2.2 2.2 0 00-2.2 2.2v30.8a2.2 2.2 0 002.2 2.2z" stroke="#555" stroke-width="2" stroke-linecap="round" stroke-linejoin="round"/><path d="M16.892 25.693a1 1 0 001.415 1.414l-1.415-1.414zm10.215-7.386a1 1 0 10-1.415-1.414l1.415 1.414zm-8.8 8.8l8.8-8.8-1.415-1.414-8.8 8.8 1.415 1.414z" fill="#555"/><path d="M18.307 16.893a1 1 0 10-1.415 1.414l1.415-1.414zm7.385 10.214a1 1 0 001.415-1.414l-1.415 1.414zm-8.8-8.8l8.8 8.8 1.415-1.414-8.8-8.8-1.415 1.414z" fill="#555"/></svg>