<svg width="44" height="40" fill="none" xmlns="http://www.w3.org/2000/svg"><path d="M22 37.4l-.486.874a1 1 0 00.973 0L22 37.4zm0-28.243l-.92.391a1 1 0 001.84 0L22 9.157zM1.2 13.139c0 7.082 5.26 13.407 10.235 17.84 2.519 2.244 5.033 4.064 6.916 5.323.942.63 1.728 1.12 2.281 1.454a39.3 39.3 0 00.864.508l.012.007.004.002h.001L22 37.4l.487-.873-.002-.002-.01-.005-.038-.022-.158-.09c-.14-.081-.347-.203-.612-.363a58.39 58.39 0 01-2.205-1.406c-1.83-1.223-4.265-2.987-6.697-5.154C7.84 25.096 3.2 19.29 3.2 13.14h-2zm21.72-4.373C20.54 3.162 15.148.614 10.308 1.313c-2.424.35-4.716 1.517-6.398 3.522C2.224 6.844 1.2 9.631 1.2 13.14h2c0-3.109.901-5.421 2.241-7.018 1.343-1.6 3.177-2.543 5.152-2.828 3.96-.573 8.468 1.505 10.487 6.255l1.84-.782zm17.88 4.373c0 6.151-4.64 11.957-9.565 16.346-2.431 2.167-4.867 3.93-6.697 5.154a58.39 58.39 0 01-2.204 1.406 38.133 38.133 0 01-.81.475l-.009.005-.001.001.486.874.487.873h.002l.003-.002.013-.007a9.415 9.415 0 00.219-.126 39.3 39.3 0 00.644-.382 60.227 60.227 0 002.282-1.454c1.882-1.259 4.397-3.079 6.916-5.323C37.54 26.546 42.8 20.22 42.8 13.139h-2zM22.92 9.548c2.02-4.75 6.527-6.828 10.487-6.255 1.976.285 3.81 1.228 5.152 2.828 1.34 1.597 2.241 3.91 2.241 7.018h2c0-3.508-1.024-6.295-2.709-8.304-1.682-2.005-3.973-3.172-6.398-3.522-4.84-.699-10.232 1.85-12.613 7.453l1.84.782z" fill="#555"/></svg>