<svg width="116" height="15" viewBox="0 0 116 15" fill="none" xmlns="http://www.w3.org/2000/svg">
<path d="M9.954 10.634H2.934L1.422 14H0.036L5.796 1.4H7.11L12.87 14H11.466L9.954 10.634ZM9.468 9.554L6.444 2.786L3.42 9.554H9.468ZM23.2365 0.643999V14H22.0125V12.128C21.6285 12.764 21.1185 13.25 20.4825 13.586C19.8585 13.922 19.1505 14.09 18.3585 14.09C17.4705 14.09 16.6665 13.886 15.9465 13.478C15.2265 13.07 14.6625 12.5 14.2545 11.768C13.8465 11.036 13.6425 10.202 13.6425 9.266C13.6425 8.33 13.8465 7.496 14.2545 6.764C14.6625 6.032 15.2265 5.468 15.9465 5.072C16.6665 4.664 17.4705 4.46 18.3585 4.46C19.1265 4.46 19.8165 4.622 20.4285 4.946C21.0525 5.258 21.5625 5.72 21.9585 6.332V0.643999H23.2365ZM18.4665 12.956C19.1265 12.956 19.7205 12.806 20.2485 12.506C20.7885 12.194 21.2085 11.756 21.5085 11.192C21.8205 10.628 21.9765 9.986 21.9765 9.266C21.9765 8.546 21.8205 7.904 21.5085 7.34C21.2085 6.776 20.7885 6.344 20.2485 6.044C19.7205 5.732 19.1265 5.576 18.4665 5.576C17.7945 5.576 17.1885 5.732 16.6485 6.044C16.1205 6.344 15.7005 6.776 15.3885 7.34C15.0885 7.904 14.9385 8.546 14.9385 9.266C14.9385 9.986 15.0885 10.628 15.3885 11.192C15.7005 11.756 16.1205 12.194 16.6485 12.506C17.1885 12.806 17.7945 12.956 18.4665 12.956ZM38.6037 4.46C39.7917 4.46 40.7217 4.802 41.3937 5.486C42.0777 6.17 42.4197 7.178 42.4197 8.51V14H41.1417V8.636C41.1417 7.652 40.9017 6.902 40.4217 6.386C39.9537 5.87 39.2877 5.612 38.4237 5.612C37.4397 5.612 36.6657 5.918 36.1017 6.53C35.5377 7.13 35.2557 7.964 35.2557 9.032V14H33.9777V8.636C33.9777 7.652 33.7377 6.902 33.2577 6.386C32.7897 5.87 32.1177 5.612 31.2417 5.612C30.2697 5.612 29.4957 5.918 28.9197 6.53C28.3557 7.13 28.0737 7.964 28.0737 9.032V14H26.7957V4.532H28.0197V6.26C28.3557 5.684 28.8237 5.24 29.4237 4.928C30.0237 4.616 30.7137 4.46 31.4937 4.46C32.2857 4.46 32.9697 4.628 33.5457 4.964C34.1337 5.3 34.5717 5.798 34.8597 6.458C35.2077 5.834 35.7057 5.348 36.3537 5C37.0137 4.64 37.7637 4.46 38.6037 4.46ZM45.8855 4.532H47.1635V14H45.8855V4.532ZM46.5335 2.462C46.2695 2.462 46.0475 2.372 45.8675 2.192C45.6875 2.012 45.5975 1.796 45.5975 1.544C45.5975 1.304 45.6875 1.094 45.8675 0.913999C46.0475 0.733999 46.2695 0.643999 46.5335 0.643999C46.7975 0.643999 47.0195 0.733999 47.1995 0.913999C47.3795 1.082 47.4695 1.286 47.4695 1.526C47.4695 1.79 47.3795 2.012 47.1995 2.192C47.0195 2.372 46.7975 2.462 46.5335 2.462ZM55.5435 4.46C56.7315 4.46 57.6735 4.808 58.3695 5.504C59.0775 6.188 59.4315 7.19 59.4315 8.51V14H58.1535V8.636C58.1535 7.652 57.9075 6.902 57.4155 6.386C56.9235 5.87 56.2215 5.612 55.3095 5.612C54.2895 5.612 53.4795 5.918 52.8795 6.53C52.2915 7.13 51.9975 7.964 51.9975 9.032V14H50.7195V4.532H51.9435V6.278C52.2915 5.702 52.7715 5.258 53.3835 4.946C54.0075 4.622 54.7275 4.46 55.5435 4.46ZM72.5981 1.4C74.2061 1.4 75.4661 1.784 76.3781 2.552C77.2901 3.32 77.7461 4.376 77.7461 5.72C77.7461 7.064 77.2901 8.12 76.3781 8.888C75.4661 9.644 74.2061 10.022 72.5981 10.022H69.2141V14H67.8821V1.4H72.5981ZM72.5621 8.852C73.8101 8.852 74.7641 8.582 75.4241 8.042C76.0841 7.49 76.4141 6.716 76.4141 5.72C76.4141 4.7 76.0841 3.92 75.4241 3.38C74.7641 2.828 73.8101 2.552 72.5621 2.552H69.2141V8.852H72.5621ZM83.5803 4.46C84.8163 4.46 85.7643 4.772 86.4243 5.396C87.0843 6.008 87.4143 6.92 87.4143 8.132V14H86.1903V12.524C85.9023 13.016 85.4763 13.4 84.9123 13.676C84.3603 13.952 83.7003 14.09 82.9323 14.09C81.8763 14.09 81.0363 13.838 80.4123 13.334C79.7883 12.83 79.4763 12.164 79.4763 11.336C79.4763 10.532 79.7643 9.884 80.3403 9.392C80.9283 8.9 81.8583 8.654 83.1303 8.654H86.1363V8.078C86.1363 7.262 85.9083 6.644 85.4523 6.224C84.9963 5.792 84.3303 5.576 83.4543 5.576C82.8543 5.576 82.2783 5.678 81.7263 5.882C81.1743 6.074 80.7003 6.344 80.3043 6.692L79.7283 5.738C80.2083 5.33 80.7843 5.018 81.4563 4.802C82.1283 4.574 82.8363 4.46 83.5803 4.46ZM83.1303 13.082C83.8503 13.082 84.4683 12.92 84.9843 12.596C85.5003 12.26 85.8843 11.78 86.1363 11.156V9.608H83.1663C81.5463 9.608 80.7363 10.172 80.7363 11.3C80.7363 11.852 80.9463 12.29 81.3663 12.614C81.7863 12.926 82.3743 13.082 83.1303 13.082ZM95.7095 4.46C96.8975 4.46 97.8395 4.808 98.5355 5.504C99.2435 6.188 99.5975 7.19 99.5975 8.51V14H98.3195V8.636C98.3195 7.652 98.0735 6.902 97.5815 6.386C97.0895 5.87 96.3875 5.612 95.4755 5.612C94.4555 5.612 93.6455 5.918 93.0455 6.53C92.4575 7.13 92.1635 7.964 92.1635 9.032V14H90.8855V4.532H92.1095V6.278C92.4575 5.702 92.9375 5.258 93.5495 4.946C94.1735 4.622 94.8935 4.46 95.7095 4.46ZM111.346 9.662H103.426C103.498 10.646 103.876 11.444 104.56 12.056C105.244 12.656 106.108 12.956 107.152 12.956C107.74 12.956 108.28 12.854 108.772 12.65C109.264 12.434 109.69 12.122 110.05 11.714L110.77 12.542C110.35 13.046 109.822 13.43 109.186 13.694C108.562 13.958 107.872 14.09 107.116 14.09C106.144 14.09 105.28 13.886 104.524 13.478C103.78 13.058 103.198 12.482 102.778 11.75C102.358 11.018 102.148 10.19 102.148 9.266C102.148 8.342 102.346 7.514 102.742 6.782C103.15 6.05 103.702 5.48 104.398 5.072C105.106 4.664 105.898 4.46 106.774 4.46C107.65 4.46 108.436 4.664 109.132 5.072C109.828 5.48 110.374 6.05 110.77 6.782C111.166 7.502 111.364 8.33 111.364 9.266L111.346 9.662ZM106.774 5.558C105.862 5.558 105.094 5.852 104.47 6.44C103.858 7.016 103.51 7.772 103.426 8.708H110.14C110.056 7.772 109.702 7.016 109.078 6.44C108.466 5.852 107.698 5.558 106.774 5.558ZM113.966 0.643999H115.244V14H113.966V0.643999Z" fill="black"/>
</svg>
