<svg width="48" height="48" viewBox="0 0 48 48" fill="none" xmlns="http://www.w3.org/2000/svg">
<g clip-path="url(#clip0_60_3641)">
<path fill-rule="evenodd" clip-rule="evenodd" d="M37.061 10.9378C37.2007 11.0771 37.3115 11.2426 37.3871 11.4249C37.4627 11.6071 37.5016 11.8025 37.5016 11.9998C37.5016 12.1971 37.4627 12.3924 37.3871 12.5747C37.3115 12.7569 37.2007 12.9224 37.061 13.0618L16.061 34.0618C15.9216 34.2015 15.7561 34.3123 15.5739 34.3879C15.3916 34.4635 15.1963 34.5024 14.999 34.5024C14.8017 34.5024 14.6063 34.4635 14.4241 34.3879C14.2418 34.3123 14.0763 34.2015 13.937 34.0618L3.43697 23.5618C3.15531 23.2801 2.99707 22.8981 2.99707 22.4998C2.99707 22.1014 3.15531 21.7194 3.43697 21.4378C3.71863 21.1561 4.10064 20.9979 4.49897 20.9979C4.89729 20.9979 5.27931 21.1561 5.56097 21.4378L14.999 30.8788L34.937 10.9378C35.0763 10.7981 35.2418 10.6872 35.4241 10.6116C35.6063 10.536 35.8017 10.4971 35.999 10.4971C36.1963 10.4971 36.3916 10.536 36.5739 10.6116C36.7561 10.6872 36.9216 10.7981 37.061 10.9378Z" fill="black"/>
<path d="M18.749 24.1287L16.061 21.4377C15.7793 21.1561 15.3973 20.9978 14.999 20.9978C14.6006 20.9978 14.2186 21.1561 13.937 21.4377C13.6553 21.7194 13.4971 22.1014 13.4971 22.4997C13.4971 22.898 13.6553 23.2801 13.937 23.5617L16.628 26.2497L18.749 24.1287ZM21.749 31.3707L24.437 34.0617C24.5763 34.2014 24.7418 34.3122 24.9241 34.3878C25.1063 34.4635 25.3017 34.5024 25.499 34.5024C25.6963 34.5024 25.8916 34.4635 26.0739 34.3878C26.2561 34.3122 26.4216 34.2014 26.561 34.0617L47.561 13.0617C47.8426 12.7801 48.0009 12.398 48.0009 11.9997C48.0009 11.6014 47.8426 11.2194 47.561 10.9377C47.2793 10.6561 46.8973 10.4978 46.499 10.4978C46.1006 10.4978 45.7186 10.6561 45.437 10.9377L25.499 30.8787L23.87 29.2497L21.749 31.3707Z" fill="black"/>
</g>
<defs>
<clipPath id="clip0_60_3641">
<rect width="48" height="48" fill="white"/>
</clipPath>
</defs>
</svg>
