<svg width="24" height="24" viewBox="0 0 24 24" fill="none" xmlns="http://www.w3.org/2000/svg">
<path d="M5.26644 9.76453C6.19903 6.93863 8.85469 4.90909 12.0002 4.90909C13.6912 4.90909 15.2184 5.50909 16.4184 6.49091L19.9093 3C17.7821 1.14545 15.0548 0 12.0002 0C7.27031 0 3.19799 2.6983 1.24023 6.65002L5.26644 9.76453Z" fill="#EA4335"/>
<path d="M16.0406 18.0126C14.9508 18.7163 13.5659 19.0909 11.9998 19.0909C8.86633 19.0909 6.21896 17.0769 5.27682 14.2679L1.2373 17.335C3.19263 21.2936 7.26484 24 11.9998 24C14.9327 24 17.7352 22.9574 19.834 20.9996L16.0406 18.0126Z" fill="#34A853"/>
<path d="M19.8342 20.9996C22.0292 18.9521 23.4545 15.9037 23.4545 12C23.4545 11.2909 23.3455 10.5273 23.1818 9.81818H12V14.4545H18.4364C18.1188 16.0136 17.2663 17.2212 16.0407 18.0126L19.8342 20.9996Z" fill="#4A90E2"/>
<path d="M5.27698 14.2679C5.03833 13.5563 4.90909 12.7938 4.90909 12C4.90909 11.2183 5.03444 10.4668 5.2662 9.76453L1.23999 6.65002C0.436587 8.26043 0 10.0754 0 12C0 13.9195 0.444781 15.7302 1.23746 17.335L5.27698 14.2679Z" fill="#FBBC05"/>
</svg>
