<svg width="25" height="25" viewBox="0 0 25 25" fill="none" xmlns="http://www.w3.org/2000/svg">
<path d="M12.5 5.15137C8.40332 5.15137 5.06836 8.48633 5.06836 12.583C5.06836 16.6797 8.40332 20.0146 12.5 20.0146C16.5967 20.0146 19.9316 16.6797 19.9316 12.583C19.9316 8.48145 16.5967 5.15137 12.5 5.15137ZM12.5 18.0176C9.50196 18.0176 7.06055 15.5762 7.06055 12.5781C7.06055 9.58008 9.50196 7.13867 12.5 7.13867C15.4981 7.13867 17.9395 9.58008 17.9395 12.5781C17.9395 15.5762 15.4981 18.0176 12.5 18.0176Z" fill="black"/>
<path d="M12.5 3.65234C13.0518 3.65234 13.4961 3.20801 13.4961 2.65625V1.5332C13.4961 0.981445 13.0518 0.537109 12.5 0.537109C11.9482 0.537109 11.5039 0.981445 11.5039 1.5332V2.65625C11.5039 3.20801 11.9482 3.65234 12.5 3.65234Z" fill="black"/>
<path d="M12.5 21.3477C11.9482 21.3477 11.5039 21.792 11.5039 22.3438V23.4619C11.5039 24.0137 11.9482 24.458 12.5 24.458C13.0518 24.458 13.4961 24.0137 13.4961 23.4619V22.3438C13.4961 21.7969 13.0518 21.3477 12.5 21.3477Z" fill="black"/>
<path d="M23.4668 11.5039H22.3437C21.792 11.5039 21.3477 11.9482 21.3477 12.5C21.3477 13.0518 21.792 13.4961 22.3437 13.4961H23.4668C24.0186 13.4961 24.4629 13.0518 24.4629 12.5C24.4629 11.9482 24.0186 11.5039 23.4668 11.5039Z" fill="black"/>
<path d="M2.65625 11.5039H1.5332C0.981445 11.5039 0.537109 11.9482 0.537109 12.5C0.537109 13.0518 0.981445 13.4961 1.5332 13.4961H2.65137C3.20312 13.4961 3.64746 13.0518 3.64746 12.5C3.65234 11.9482 3.20312 11.5039 2.65625 11.5039Z" fill="black"/>
<path d="M19.5508 4.04297L18.7549 4.83399C18.3643 5.22461 18.3643 5.85449 18.7549 6.24512C19.1455 6.63575 19.7754 6.63575 20.166 6.24512L20.957 5.4541C21.3477 5.06348 21.3477 4.43359 20.957 4.04297C20.5664 3.65234 19.9365 3.65234 19.5508 4.04297Z" fill="black"/>
<path d="M4.83399 18.7549L4.04297 19.5459C3.65234 19.9365 3.65234 20.5664 4.04297 20.957C4.43359 21.3477 5.06348 21.3477 5.4541 20.957L6.24512 20.166C6.63575 19.7754 6.63575 19.1455 6.24512 18.7549C5.85449 18.3643 5.22461 18.3691 4.83399 18.7549Z" fill="black"/>
<path d="M20.166 18.7549C19.7754 18.3643 19.1455 18.3643 18.7549 18.7549C18.3643 19.1455 18.3643 19.7754 18.7549 20.166L19.5459 20.957C19.9365 21.3477 20.5664 21.3477 20.957 20.957C21.3477 20.5664 21.3477 19.9365 20.957 19.5459L20.166 18.7549Z" fill="black"/>
<path d="M4.83399 6.24512C5.22461 6.63575 5.85449 6.63575 6.24512 6.24512C6.63575 5.85449 6.63575 5.22461 6.24512 4.83399L5.4541 4.04297C5.06348 3.65234 4.43359 3.65234 4.04297 4.04297C3.65234 4.43359 3.65234 5.06348 4.04297 5.4541L4.83399 6.24512Z" fill="black"/>
</svg>
