<svg width="24" height="17" viewBox="0 0 24 17" fill="none" xmlns="http://www.w3.org/2000/svg">
<g clip-path="url(#clip0_44_1997)">
<path d="M8.4 9.6C9.72548 9.6 10.8 8.52549 10.8 7.2C10.8 5.87452 9.72548 4.8 8.4 4.8C7.07452 4.8 6 5.87452 6 7.2C6 8.52549 7.07452 9.6 8.4 9.6Z" stroke="#555555" stroke-width="2" stroke-linecap="round" stroke-linejoin="round"/>
<path d="M21.6002 1.2H2.4002C1.73745 1.2 1.2002 1.73725 1.2002 2.4V14.4C1.2002 15.0627 1.73745 15.6 2.4002 15.6H21.6002C22.2629 15.6 22.8002 15.0627 22.8002 14.4V2.4C22.8002 1.73726 22.2629 1.2 21.6002 1.2Z" stroke="#555555" stroke-width="2" stroke-linecap="round" stroke-linejoin="round"/>
<path d="M4.7998 15.6C4.7998 14.2745 6.41158 13.2 8.3998 13.2C10.388 13.2 11.9998 14.2745 11.9998 15.6" stroke="#555555" stroke-width="2" stroke-linecap="round" stroke-linejoin="round"/>
<path d="M19.2004 10.8L14.4004 10.8" stroke="#555555" stroke-width="2" stroke-linecap="round" stroke-linejoin="round"/>
<path d="M19.1996 7.2L15.5996 7.2" stroke="#555555" stroke-width="2" stroke-linecap="round" stroke-linejoin="round"/>
</g>
<defs>
<clipPath id="clip0_44_1997">
<rect width="24" height="16.8" fill="white"/>
</clipPath>
</defs>
</svg>
