<svg width="24" height="24" viewBox="0 0 24 24" fill="none" xmlns="http://www.w3.org/2000/svg">
<path d="M12.7074 2.10051L13.4145 1.3934V1.3934L12.7074 2.10051ZM15.5358 4.92894L14.8287 5.63604L15.5358 4.92894ZM11.2932 9.17158L12.0003 8.46447L11.2932 9.17158ZM8.46477 6.34315L7.75766 7.05026L8.46477 6.34315ZM8.46477 4.92894L7.75766 4.22183L8.46477 4.92894ZM11.2932 2.10051L12.0003 2.80762L11.2932 2.10051ZM12.0003 2.80762L14.8287 5.63604L16.2429 4.22183L13.4145 1.3934L12.0003 2.80762ZM14.8287 5.63604L12.0003 8.46447L13.4145 9.87868L16.2429 7.05026L14.8287 5.63604ZM12.0003 8.46447L9.17188 5.63604L7.75766 7.05026L10.5861 9.87868L12.0003 8.46447ZM9.17187 5.63604L12.0003 2.80762L10.5861 1.3934L7.75766 4.22183L9.17187 5.63604ZM9.17188 5.63604H9.17187L7.75766 4.22183C6.97661 5.00288 6.97661 6.26921 7.75766 7.05026L9.17188 5.63604ZM12.0003 8.46447L10.5861 9.87868C11.3671 10.6597 12.6335 10.6597 13.4145 9.87868L12.0003 8.46447ZM14.8287 5.63604L16.2429 7.05026C17.024 6.26921 17.024 5.00288 16.2429 4.22183L14.8287 5.63604ZM13.4145 1.3934C12.6335 0.612355 11.3671 0.612355 10.5861 1.3934L12.0003 2.80762V2.80762L13.4145 1.3934Z" fill="#041E42"/>
<path d="M6.34315 8.46452L7.05026 7.75742V7.75742L6.34315 8.46452ZM9.17158 11.293L8.46447 12.0001L9.17158 11.293ZM4.92894 15.5356L5.63604 14.8285L4.92894 15.5356ZM2.10051 12.7072L1.3934 13.4143L2.10051 12.7072ZM2.10051 11.293L1.3934 10.5858L2.10051 11.293ZM4.92894 8.46452L5.63604 9.17163L4.92894 8.46452ZM5.63604 9.17163L8.46447 12.0001L9.87868 10.5858L7.05026 7.75742L5.63604 9.17163ZM8.46447 12.0001L5.63604 14.8285L7.05026 16.2427L9.87868 13.4143L8.46447 12.0001ZM5.63604 14.8285L2.80762 12.0001L1.3934 13.4143L4.22183 16.2427L5.63604 14.8285ZM2.80762 12.0001L5.63604 9.17163L4.22183 7.75742L1.3934 10.5858L2.80762 12.0001ZM2.80762 12.0001H2.80762L1.3934 10.5858C0.612355 11.3669 0.612355 12.6332 1.3934 13.4143L2.80762 12.0001ZM5.63604 14.8285L4.22183 16.2427C5.00288 17.0237 6.26921 17.0237 7.05026 16.2427L5.63604 14.8285ZM8.46447 12.0001L9.87868 13.4143C10.6597 12.6332 10.6597 11.3669 9.87868 10.5858L8.46447 12.0001ZM7.05026 7.75742C6.26921 6.97637 5.00288 6.97637 4.22183 7.75742L5.63604 9.17163V9.17163L7.05026 7.75742Z" fill="#041E42"/>
<path d="M19.0707 8.46452L19.7778 7.75742V7.75742L19.0707 8.46452ZM21.8991 11.293L21.192 12.0001L21.8991 11.293ZM17.6565 15.5356L18.3636 14.8285L17.6565 15.5356ZM14.828 12.7072L14.1209 13.4143L14.828 12.7072ZM14.828 11.293L14.1209 10.5858L14.828 11.293ZM17.6565 8.46452L18.3636 9.17163L17.6565 8.46452ZM18.3636 9.17163L21.192 12.0001L22.6062 10.5858L19.7778 7.75742L18.3636 9.17163ZM21.192 12.0001L18.3636 14.8285L19.7778 16.2427L22.6062 13.4143L21.192 12.0001ZM18.3636 14.8285L15.5352 12.0001L14.1209 13.4143L16.9494 16.2427L18.3636 14.8285ZM15.5352 12.0001L18.3636 9.17163L16.9494 7.75742L14.1209 10.5858L15.5352 12.0001ZM15.5352 12.0001H15.5352L14.1209 10.5858C13.3399 11.3669 13.3399 12.6332 14.1209 13.4143L15.5352 12.0001ZM18.3636 14.8285L16.9494 16.2427C17.7304 17.0237 18.9967 17.0237 19.7778 16.2427L18.3636 14.8285ZM21.192 12.0001L22.6062 13.4143C23.3873 12.6332 23.3873 11.3669 22.6062 10.5858L21.192 12.0001ZM19.7778 7.75742C18.9967 6.97637 17.7304 6.97637 16.9494 7.75742L18.3636 9.17163V9.17163L19.7778 7.75742Z" fill="#041E42"/>
<path d="M12.7074 14.8285L13.4145 14.1214V14.1214L12.7074 14.8285ZM15.5358 17.657L14.8287 18.3641L15.5358 17.657ZM11.2932 21.8996L12.0003 21.1925L11.2932 21.8996ZM8.46477 19.0712L7.75766 19.7783L8.46477 19.0712ZM8.46477 17.657L7.75766 16.9499L8.46477 17.657ZM11.2932 14.8285L12.0003 15.5356L11.2932 14.8285ZM12.0003 15.5356L14.8287 18.3641L16.2429 16.9499L13.4145 14.1214L12.0003 15.5356ZM14.8287 18.3641L12.0003 21.1925L13.4145 22.6067L16.2429 19.7783L14.8287 18.3641ZM12.0003 21.1925L9.17188 18.3641L7.75766 19.7783L10.5861 22.6067L12.0003 21.1925ZM9.17187 18.3641L12.0003 15.5356L10.5861 14.1214L7.75766 16.9499L9.17187 18.3641ZM9.17188 18.3641H9.17187L7.75766 16.9499C6.97661 17.7309 6.97661 18.9972 7.75766 19.7783L9.17188 18.3641ZM12.0003 21.1925L10.5861 22.6067C11.3671 23.3878 12.6335 23.3878 13.4145 22.6067L12.0003 21.1925ZM14.8287 18.3641L16.2429 19.7783C17.024 18.9972 17.024 17.7309 16.2429 16.9499L14.8287 18.3641ZM13.4145 14.1214C12.6335 13.3404 11.3671 13.3404 10.5861 14.1214L12.0003 15.5356V15.5356L13.4145 14.1214Z" fill="#041E42"/>
</svg>
