<svg width="24" height="22" viewBox="0 0 24 22" fill="none" xmlns="http://www.w3.org/2000/svg">
<g clip-path="url(#clip0_44_2017)">
<path d="M1.2002 3.60001L22.8002 3.60001" stroke="#555555" stroke-width="2" stroke-linecap="round" stroke-linejoin="round"/>
<path d="M2.4002 20.4L21.6002 20.4C22.2629 20.4 22.8002 19.8628 22.8002 19.2L22.8002 2.40001C22.8002 1.73727 22.2629 1.20001 21.6002 1.20001L2.4002 1.20001C1.73745 1.20001 1.2002 1.73727 1.2002 2.40001L1.2002 19.2C1.2002 19.8628 1.73746 20.4 2.4002 20.4Z" stroke="#555555" stroke-width="2" stroke-linecap="round" stroke-linejoin="round"/>
<path d="M8.8925 13.6929C8.50198 14.0834 8.50198 14.7165 8.8925 15.1071C9.28303 15.4976 9.91619 15.4976 10.3067 15.1071L8.8925 13.6929ZM15.1067 10.3071C15.4972 9.91659 15.4972 9.28342 15.1067 8.8929C14.7162 8.50238 14.083 8.50238 13.6925 8.8929L15.1067 10.3071ZM10.3067 15.1071L15.1067 10.3071L13.6925 8.8929L8.8925 13.6929L10.3067 15.1071Z" fill="#555555"/>
<path d="M10.3067 8.89293C9.91619 8.50241 9.28303 8.50241 8.8925 8.89293C8.50198 9.28345 8.50198 9.91662 8.8925 10.3071L10.3067 8.89293ZM13.6925 15.1071C14.083 15.4976 14.7162 15.4976 15.1067 15.1071C15.4972 14.7166 15.4972 14.0834 15.1067 13.6929L13.6925 15.1071ZM8.8925 10.3071L13.6925 15.1071L15.1067 13.6929L10.3067 8.89293L8.8925 10.3071Z" fill="#555555"/>
</g>
<defs>
<clipPath id="clip0_44_2017">
<rect width="24" height="21.6" fill="white"/>
</clipPath>
</defs>
</svg>
