<svg width="24" height="24" viewBox="0 0 24 24" fill="none" xmlns="http://www.w3.org/2000/svg">
<path d="M18 21.6C18 20.9373 18.5373 20.4 19.2 20.4C19.8627 20.4 20.4 20.9373 20.4 21.6C20.4 22.2627 19.8627 22.8 19.2 22.8C18.5373 22.8 18 22.2627 18 21.6Z" stroke="#555555" stroke-width="2" stroke-linecap="round" stroke-linejoin="round"/>
<path d="M6 21.6C6 20.9373 6.53726 20.4 7.2 20.4C7.86274 20.4 8.4 20.9373 8.4 21.6C8.4 22.2627 7.86274 22.8 7.2 22.8C6.53726 22.8 6 22.2627 6 21.6Z" stroke="#555555" stroke-width="2" stroke-linecap="round" stroke-linejoin="round"/>
<path d="M1.2002 0.200012C0.647911 0.200012 0.200195 0.647727 0.200195 1.20001C0.200195 1.7523 0.647911 2.20001 1.2002 2.20001V0.200012ZM3.30151 2.18216L4.2849 2.00061V2.00061L3.30151 2.18216ZM5.01681 16.9816C5.11708 17.5247 5.63864 17.8837 6.18174 17.7834C6.72485 17.6831 7.08384 17.1616 6.98358 16.6185L5.01681 16.9816ZM1.2002 2.20001H2.12145V0.200012H1.2002V2.20001ZM2.31813 2.3637L5.01681 16.9816L6.98358 16.6185L4.2849 2.00061L2.31813 2.3637ZM2.12145 2.20001C2.21791 2.20001 2.30062 2.26885 2.31813 2.3637L4.2849 2.00061C4.09228 0.957253 3.18244 0.200012 2.12145 0.200012V2.20001Z" fill="#555555"/>
<path d="M4.2002 3.79999C3.64791 3.79999 3.2002 4.2477 3.2002 4.79999C3.2002 5.35227 3.64791 5.79999 4.2002 5.79999V3.79999ZM22.461 6.26982L23.4354 6.49468V6.49468L22.461 6.26982ZM20.2456 15.8698L21.22 16.0947V16.0947L20.2456 15.8698ZM6.0002 15.8C5.44791 15.8 5.0002 16.2477 5.0002 16.8C5.0002 17.3523 5.44791 17.8 6.0002 17.8V15.8ZM4.2002 5.79999H21.2917V3.79999H4.2002V5.79999ZM21.4866 6.04496L19.2712 15.645L21.22 16.0947L23.4354 6.49468L21.4866 6.04496ZM19.0763 15.8H6.0002V17.8H19.0763V15.8ZM19.2712 15.645C19.2503 15.7357 19.1695 15.8 19.0763 15.8V17.8C20.1008 17.8 20.9897 17.0929 21.22 16.0947L19.2712 15.645ZM21.2917 5.79999C21.4204 5.79999 21.5155 5.91964 21.4866 6.04496L23.4354 6.49468C23.7535 5.11612 22.7065 3.79999 21.2917 3.79999V5.79999Z" fill="#555555"/>
</svg>
