<svg width="24" height="22" viewBox="0 0 24 22" fill="none" xmlns="http://www.w3.org/2000/svg">
<g clip-path="url(#clip0_44_2002)">
<path d="M2.4002 2.2H21.6002V0.199997H2.4002V2.2ZM21.8002 2.4V19.2H23.8002V2.4H21.8002ZM21.6002 19.4H2.4002V21.4H21.6002V19.4ZM2.2002 19.2V2.4H0.200195V19.2H2.2002ZM2.4002 19.4C2.28974 19.4 2.2002 19.3104 2.2002 19.2H0.200195C0.200195 20.415 1.18517 21.4 2.4002 21.4V19.4ZM21.8002 19.2C21.8002 19.3104 21.7107 19.4 21.6002 19.4V21.4C22.8152 21.4 23.8002 20.415 23.8002 19.2H21.8002ZM21.6002 2.2C21.7107 2.2 21.8002 2.28954 21.8002 2.4H23.8002C23.8002 1.18497 22.8152 0.199997 21.6002 0.199997V2.2ZM2.4002 0.199997C1.18517 0.199997 0.200195 1.18497 0.200195 2.4H2.2002C2.2002 2.28954 2.28974 2.2 2.4002 2.2V0.199997Z" fill="#555555"/>
<path d="M16.6004 6C16.6004 5.44772 16.1527 5 15.6004 5C15.0481 5 14.6004 5.44772 14.6004 6L16.6004 6ZM9.40039 6C9.40039 5.44772 8.95268 5 8.40039 5C7.84811 5 7.40039 5.44772 7.40039 6L9.40039 6ZM14.6004 6C14.6004 7.43594 13.4363 8.6 12.0004 8.6L12.0004 10.6C14.5409 10.6 16.6004 8.54051 16.6004 6L14.6004 6ZM12.0004 8.6C10.5645 8.6 9.40039 7.43594 9.40039 6L7.40039 6C7.40039 8.54051 9.45988 10.6 12.0004 10.6L12.0004 8.6Z" fill="#555555"/>
</g>
<defs>
<clipPath id="clip0_44_2002">
<rect width="24" height="21.6" fill="white"/>
</clipPath>
</defs>
</svg>
